<?xml version="1.0" encoding="utf-8"?>
<!-- Generator: Adobe Illustrator 19.0.0, SVG Export Plug-In . SVG Version: 6.00 Build 0)  -->
<svg version="1.1" id="Layer_1" xmlns="http://www.w3.org/2000/svg" xmlns:xlink="http://www.w3.org/1999/xlink" x="0px" y="0px"
	 viewBox="0 0 327.9 693.4" style="enable-background:new 0 0 327.9 693.4;" xml:space="preserve">
<style type="text/css">
	.st0{fill-rule:evenodd;clip-rule:evenodd;fill:#165027;}
	.st1{fill-rule:evenodd;clip-rule:evenodd;fill:#62A644;}
	.st2{fill-rule:evenodd;clip-rule:evenodd;fill:#134120;}
	.st3{fill-rule:evenodd;clip-rule:evenodd;fill:#59A345;}
	.st4{fill-rule:evenodd;clip-rule:evenodd;fill:#92D5E1;}
	.st5{fill-rule:evenodd;clip-rule:evenodd;fill:#A4CC39;}
	.st6{fill-rule:evenodd;clip-rule:evenodd;fill:#277039;}
	.st7{fill-rule:evenodd;clip-rule:evenodd;fill:#184F27;}
	.st8{fill-rule:evenodd;clip-rule:evenodd;fill:#FFFFFF;}
</style>
<g>
	<polygon class="st0" points="198.2,516.7 198.2,547.3 190.9,547.3 190.9,535.7 180.2,535.7 180.2,547.3 172.9,547.3 172.9,516.7 
		180.2,516.7 180.2,528.3 190.9,528.3 190.9,516.7 198.2,516.7 	"/>
	<polygon class="st0" points="164.8,516.7 164.8,521.9 164.8,547.3 157.4,547.3 157.4,530.8 143.8,547.3 141.8,547.3 138.5,547.3 
		138.5,542 138.5,516.7 145.9,516.7 145.9,533.1 159.5,516.7 161.4,516.7 164.8,516.7 	"/>
	<polygon class="st0" points="130.4,516.7 130.4,547.3 92.9,547.3 92.9,516.7 100.3,516.7 100.3,539.9 108,539.9 108,516.7 
		115.4,516.7 115.4,539.9 123,539.9 123,516.7 130.4,516.7 	"/>
	<path class="st0" d="M219.7,516.2c10.2,0,15.3,7.9,15.3,15.8c0,7.9-5.1,15.8-15.3,15.8c-8.6,0-13.6-5.6-14.9-12.1h7.6
		c1.1,2.9,3.6,4.7,7.3,4.7c3.9,0,6.5-2.1,7.5-5.3h-10.6v-6.3h10.6c-1-3.2-3.5-5.3-7.5-5.3c-3.7,0-6.2,1.9-7.3,4.7h-7.6
		C206.1,521.8,211.1,516.2,219.7,516.2z"/>
	<g>
		<path class="st0" d="M71.8,601.1h-9.6v-12.3h-4.4l-7.1,12.3h-11l7.9-13.6c-4.6-2.2-7.9-6.9-7.9-12.4l0,0c0-7.5,6.2-13.7,13.7-13.7
			h8.9h7.5h2.1V601.1L71.8,601.1z M202,561.5h6.4v39.6h-9.6v-21.8l-11.1,12.4l-11.1-12.4v21.8h-9.6v-39.6h6.4l14.4,15.9L202,561.5
			L202,561.5z M263.8,601.1h9.6V571h14.9v-9.6h-14.9h-9.6v9.6V601.1L263.8,601.1z M244.3,595.5h-16.5l-2.3,5.6h-10.3l16.2-39.6h1.5
			h6.2h1.5l16.2,39.6h-10.3L244.3,595.5L244.3,595.5z M231.2,587.3h9.8l-4.9-11.9L231.2,587.3L231.2,587.3z M127.2,601.1h9.6v-12.3
			h8.9c7.5,0,13.7-6.1,13.7-13.7l0,0c0-7.5-6.2-13.7-13.7-13.7h-8.9h-7.5h-2.1V601.1L127.2,601.1z M136.8,579.2V571h8.9
			c2.2,0,4.1,1.9,4.1,4.1c0,2.2-1.9,4.1-4.1,4.1H136.8L136.8,579.2z M107.7,595.5H91.3l-2.3,5.6H78.6l16.2-39.6h1.5h6.2h1.5
			l16.2,39.6H110L107.7,595.5L107.7,595.5z M94.6,587.3h9.8l-4.9-11.9L94.6,587.3L94.6,587.3z M62.2,579.2V571h-8.9
			c-2.2,0-4.1,1.9-4.1,4.1c0,2.2,1.9,4.1,4.1,4.1H62.2z"/>
	</g>
	<g>
		<path class="st1" d="M68.2,630.9v-5.1h-1.5v-10.6h-2.5v10.6h-4.3v-10.6h-2.5v12.8h8.4v2.8H68.2L68.2,630.9z M80,620.8
			c0-2.1-0.4-3.3-1.3-4.2c-0.9-0.9-2.1-1.4-3.4-1.4c-1.4,0-2.6,0.5-3.5,1.4c-1,1-1.3,2-1.3,4.6v1.1c0,1.4,0,3.3,1.3,4.6
			c0.9,0.9,2.1,1.4,3.5,1.4c1.4,0,2.6-0.5,3.4-1.4c1.3-1.3,1.3-3,1.3-4.6V620.8L80,620.8z M77.5,621.5c0,2.6-0.1,3.2-0.6,3.8
			c-0.4,0.4-1,0.7-1.6,0.7s-1.2-0.3-1.6-0.7c-0.6-0.6-0.6-1.8-0.6-3.1v-0.6c0-1.6,0-2.8,0.6-3.4c0.4-0.5,1-0.7,1.6-0.7
			s1.2,0.2,1.6,0.7C77.4,618.7,77.5,619.4,77.5,621.5L77.5,621.5z M91.5,617.5v-2.2h-8v12.8H86v-10.6H91.5L91.5,617.5z M105.1,630.9
			v-5.1h-1.5v-10.6h-2.5v10.6h-4.3v-10.6h-2.5v12.8h8.4v2.8H105.1L105.1,630.9z M117,620.8c0-2.1-0.4-3.3-1.3-4.2
			c-0.9-0.9-2.1-1.4-3.4-1.4c-1.4,0-2.6,0.5-3.5,1.4c-1,1-1.3,2-1.3,4.6v1.1c0,1.4,0,3.3,1.3,4.6c0.9,0.9,2.1,1.4,3.5,1.4
			c1.4,0,2.6-0.5,3.4-1.4c1.3-1.3,1.3-3,1.3-4.6V620.8L117,620.8z M114.5,621.5c0,2.6-0.1,3.2-0.6,3.8c-0.4,0.4-1,0.7-1.6,0.7
			c-0.6,0-1.2-0.3-1.6-0.7c-0.6-0.6-0.6-1.8-0.6-3.1v-0.6c0-1.6,0-2.8,0.6-3.4c0.4-0.5,1-0.7,1.6-0.7c0.6,0,1.2,0.2,1.6,0.7
			C114.3,618.7,114.5,619.4,114.5,621.5L114.5,621.5z M129.3,628.1v-12.8h-8v5.8c0,4-0.9,4.8-2.2,4.8h-0.4v2.2h1c2.7,0,4-1.5,4-6.8
			v-3.7h3.1v10.6H129.3L129.3,628.1z M142.4,624.1c0-2.3-1.6-4-4.1-4h-2.6v-2.6h6v-2.2h-8.5v12.8h5.1
			C140.9,628.1,142.4,626.5,142.4,624.1L142.4,624.1z M139.9,624.1c0,1.1-0.7,1.8-1.8,1.8h-2.5v-3.5h2.5
			C139.3,622.4,139.9,623.1,139.9,624.1L139.9,624.1z M154.7,620.8c0-2.1-0.4-3.3-1.3-4.2c-0.9-0.9-2.1-1.4-3.4-1.4
			c-1.4,0-2.6,0.5-3.5,1.4c-1,1-1.3,2-1.3,4.6v1.1c0,1.4,0,3.3,1.3,4.6c0.9,0.9,2.1,1.4,3.5,1.4c1.4,0,2.6-0.5,3.4-1.4
			c1.3-1.3,1.3-3,1.3-4.6V620.8L154.7,620.8z M152.3,621.5c0,2.6-0.1,3.2-0.6,3.8c-0.4,0.4-1,0.7-1.6,0.7c-0.6,0-1.2-0.3-1.6-0.7
			c-0.6-0.6-0.6-1.8-0.6-3.1v-0.6c0-1.6,0-2.8,0.6-3.4c0.4-0.5,1-0.7,1.6-0.7c0.6,0,1.2,0.2,1.6,0.7
			C152.1,618.7,152.3,619.4,152.3,621.5L152.3,621.5z M158.1,615.3v12.8h2.5v-4.8h2.5c2.5,0,4.2-1.7,4.2-4c0-2.3-1.8-4-4.2-4H158.1
			L158.1,615.3z M160.6,621v-3.5h2.3c1.1,0,1.9,0.7,1.9,1.8c0,1.1-0.7,1.7-1.9,1.7H160.6z"/>
		<path class="st1" d="M184.8,628.1l-4-6.6l3.7-6.2h-2.8l-2.2,4.1l-2.2-4.1h-2.8l3.7,6.2l-4,6.6h2.9l2.5-4.5l2.5,4.5H184.8
			L184.8,628.1z M196.1,620.8c0-2.1-0.4-3.3-1.3-4.2c-0.9-0.9-2.1-1.4-3.4-1.4c-1.4,0-2.6,0.5-3.5,1.4c-1,1-1.3,2-1.3,4.6v1.1
			c0,1.4,0,3.3,1.3,4.6c0.9,0.9,2.1,1.4,3.5,1.4c1.4,0,2.6-0.5,3.4-1.4c1.3-1.3,1.3-3,1.3-4.6V620.8L196.1,620.8z M193.6,621.5
			c0,2.6-0.1,3.2-0.6,3.8c-0.4,0.4-1,0.7-1.6,0.7s-1.2-0.3-1.6-0.7c-0.6-0.6-0.6-1.8-0.6-3.1v-0.6c0-1.6,0-2.8,0.6-3.4
			c0.4-0.4,1-0.7,1.6-0.7s1.2,0.2,1.6,0.7C193.4,618.7,193.6,619.4,193.6,621.5L193.6,621.5z M199.4,615.3v12.8h2.5v-4.8h2.5
			c2.5,0,4.2-1.7,4.2-4c0-2.3-1.8-4-4.2-4H199.4L199.4,615.3z M201.9,621v-3.5h2.3c1.1,0,1.8,0.7,1.8,1.8c0,1.1-0.7,1.7-1.8,1.7
			H201.9L201.9,621z M220.6,620.8c0-2.1-0.4-3.3-1.3-4.2c-0.9-0.9-2.1-1.4-3.4-1.4c-1.4,0-2.6,0.5-3.5,1.4c-1,1-1.3,2-1.3,4.6v1.1
			c0,1.4,0,3.3,1.3,4.6c0.9,0.9,2.1,1.4,3.5,1.4c1.4,0,2.6-0.5,3.4-1.4c1.3-1.3,1.3-3,1.3-4.6V620.8L220.6,620.8z M218.1,621.5
			c0,2.6-0.1,3.2-0.6,3.8c-0.4,0.4-1,0.7-1.6,0.7c-0.6,0-1.2-0.3-1.6-0.7c-0.6-0.6-0.6-1.8-0.6-3.1v-0.6c0-1.6,0-2.8,0.6-3.4
			c0.4-0.4,1-0.7,1.6-0.7c0.6,0,1.2,0.2,1.6,0.7C217.9,618.7,218.1,619.4,218.1,621.5L218.1,621.5z M233,620.8
			c0-2.1-0.4-3.3-1.3-4.2c-0.9-0.9-2.1-1.4-3.4-1.4c-1.4,0-2.6,0.5-3.5,1.4c-1,1-1.3,2-1.3,4.6v1.1c0,1.4,0,3.3,1.3,4.6
			c0.9,0.9,2.1,1.4,3.5,1.4s2.6-0.5,3.4-1.4c1.3-1.3,1.3-3,1.3-4.6V620.8L233,620.8z M230.5,621.5c0,2.6-0.1,3.2-0.6,3.8
			c-0.4,0.4-1,0.7-1.6,0.7c-0.6,0-1.2-0.3-1.6-0.7c-0.6-0.6-0.6-1.8-0.6-3.1v-0.6c0-1.6,0-2.8,0.6-3.4c0.4-0.4,1-0.7,1.6-0.7
			c0.6,0,1.2,0.2,1.6,0.7C230.3,618.7,230.5,619.4,230.5,621.5L230.5,621.5z M245.3,628.1v-12.8h-8v5.8c0,4-0.9,4.8-2.2,4.8h-0.4
			v2.2h1c2.7,0,4-1.5,4-6.8v-3.7h3.1v10.6H245.3L245.3,628.1z M258.2,620.8c0-2.1-0.4-3.3-1.3-4.2c-0.9-0.9-2.1-1.4-3.4-1.4
			c-1.4,0-2.6,0.5-3.5,1.4c-1,1-1.3,2-1.3,4.6v1.1c0,1.4,0,3.3,1.3,4.6c0.9,0.9,2.1,1.4,3.5,1.4c1.4,0,2.6-0.5,3.4-1.4
			c1.3-1.3,1.3-3,1.3-4.6V620.8L258.2,620.8z M255.7,621.5c0,2.6-0.1,3.2-0.6,3.8c-0.4,0.4-1,0.7-1.6,0.7c-0.6,0-1.2-0.3-1.6-0.7
			c-0.6-0.6-0.6-1.8-0.6-3.1v-0.6c0-1.6,0-2.8,0.6-3.4c0.4-0.4,1-0.7,1.6-0.7c0.6,0,1.2,0.2,1.6,0.7
			C255.5,618.7,255.7,619.4,255.7,621.5L255.7,621.5z M270.5,628.1v-12.8h-8v5.8c0,4-0.9,4.8-2.2,4.8H260v2.2h1c2.7,0,4-1.5,4-6.8
			v-3.7h3.1v10.6H270.5z"/>
	</g>
	<g>
		<g>
			<path class="st2" d="M183.2,661.4c-17.6,32.3-36.2,32.7-32.1,22.6h-4.8c-5.7,14,16.1,15.3,35.1-15.8l-3.5,13.2h2.7h1h1.1
				l12.3-14.9l-6.1,14.9h4.8l8.1-19.9h-2.7h-1.4h-0.7l-13.4,16.2l4.3-16.2h-2.8H183.2z"/>
			<path class="st2" d="M168.8,663c-0.6-1.3-1.7-2.2-3.8-2.2c-10.4,0-23.2,21.1-12.1,21.1c4.4,0,7.7-2.3,10.2-4.8l-1.7,4.3h4.8
				l0.4-1l7.7-18.9h-4.8L168.8,663L168.8,663z M165.6,670.7c-1.5,3.7-5.2,8.7-9.8,8.7c-5.9,0,3.1-16.8,9.1-16.8
				c2.1,0,2.8,2.9,1.8,5.3L165.6,670.7z"/>
			<path class="st2" d="M205.7,661.4h4.8l-2.9,7.2c13.9-4.6,11.2,13.3-2.5,13.3c-4.2,0-6.7-2.6-4.6-7.8L205.7,661.4L205.7,661.4z
				 M207,670l-2.4,5.9c-1.1,2.8-1.4,4.8,0.9,4.8C210.6,680.6,215.4,668.2,207,670z"/>
			<path class="st2" d="M235.3,667.7l-2,4.8c-1.1,2.8-3.6,7.7-8,7.7c-5.1,0,1.5-17.9,8.1-17.9C236.7,662.3,236.1,665.7,235.3,667.7
				L235.3,667.7z M237.2,663.1c-0.4-1.1-1.7-2.3-4-2.3c-13.3,0-19.6,21.1-8.5,21.1c6.4,0,11.3-3.8,14.2-11.1l4.1-10
				c5.1-12.6,1.7-18.7-7.2-18.7c-15.7,0-17.2,17.8-5.9,14.4l0.2-0.4l0.3-0.7c-5.7,0-3.1-11.9,4.9-11.9c5.8,0,7.9,5.2,2.9,17.4
				L237.2,663.1z"/>
			<path class="st2" d="M294.2,655.4c1.6,0,3.2,0,4.8,0l-5.4,13.2c13.9-4.6,11.2,13.3-2.5,13.3c-4.2,0-6.7-2.6-4.6-7.8
				c1.7-4.2,3.7-9.1,5.4-13.3l1.4-3.3c-5.6,3.4-16.1,3.9-13.3-2.9c1.6,0,3.2,0,4.8,0C282.8,659.7,291.7,658.1,294.2,655.4
				L294.2,655.4z M293.1,670l-2.4,5.9c-1.1,2.8-1.4,4.8,0.9,4.8C296.7,680.6,301.4,668.2,293.1,670z"/>
			<path class="st2" d="M327.9,661.4l-8.1,19.9H315l3.6-8.8c-1.1,0.4-2.1,0.6-3,0.7c-3.1,3.2-7.7,10.6-13.9,8.7l1.8-4.4
				c3.5,0.9,5.8-0.6,10.2-4.2c-8.4-0.4-4.8-12.5,6.9-12.5C323.2,660.8,327.9,661.4,327.9,661.4L327.9,661.4z M319.4,670.5l3.3-8.1
				C313.1,662.5,310.2,673.3,319.4,670.5z"/>
			<path class="st2" d="M259.8,663c-0.6-1.3-1.7-2.2-3.8-2.2c-10.4,0-23.2,21.1-12.1,21.1c4.4,0,7.7-2.3,10.2-4.8l-1.7,4.3h4.8
				l0.4-1l7.7-18.9h-4.8L259.8,663L259.8,663z M256.7,670.7c-1.5,3.7-5.2,8.7-9.8,8.7c-5.9,0,3.1-16.8,9.1-16.8
				c2.1,0,2.8,2.9,1.8,5.3L256.7,670.7z"/>
			<path class="st2" d="M272.6,665.2c2.1-2.4,6-4.4,8.3-4.4c9.1,0,3.5,21.1-8.5,21.1c-3.2,0-4.7-1.4-5.4-3l-5.6,13.7h-4.8l12.7-31.2
				h4.8l-0.9,2.2L272.6,665.2L272.6,665.2z M271.2,668.8l-2,4.8c-1.4,3.5-0.4,6,2.3,6c7.1,0,12-16.5,7.7-16.5
				C277.3,663,273.6,665.5,271.2,668.8z"/>
		</g>
		<g>
			<polygon class="st2" points="113.1,661.4 118,661.4 109.8,681.3 105,681.3 			"/>
			<path class="st2" d="M111.2,673.1c5.8-14.1,20-14.9,16.1-5.3l-5.5,13.5h-4.8l5.6-13.7c1.6-3.9-5.3-4.4-8.6,3.8L111.2,673.1z"/>
			<path class="st2" d="M123.1,673.1c5.8-14.1,20-14.9,16.1-5.3l-5.5,13.5h-4.8l5.6-13.7c1.6-3.9-5.3-4.4-8.6,3.8L123.1,673.1z"/>
			<path class="st2" d="M80.7,663c-0.6-1.3-1.7-2.2-3.8-2.2c-10.4,0-23.2,21.1-12.1,21.1c4.4,0,7.7-2.3,10.2-4.8l-1.7,4.3h4.8l0.4-1
				l7.7-18.9h-4.8L80.7,663L80.7,663z M77.6,670.7c-1.5,3.7-5.2,8.7-9.8,8.7c-5.9,0,3.1-16.8,9.1-16.8c2.1,0,2.8,2.9,1.8,5.3
				L77.6,670.7z"/>
			<path class="st2" d="M93.7,665.2c2.1-2.4,6-4.4,8.3-4.4c9.1,0,3.5,21.1-8.5,21.1c-3.2,0-4.7-1.4-5.4-3l-5.6,13.7h-4.8l12.7-31.2
				h4.8l-0.9,2.2L93.7,665.2L93.7,665.2z M92.3,668.8l-2,4.8c-1.4,3.5-0.4,6,2.3,6c7.1,0,12-16.5,7.7-16.5
				C98.4,663,94.7,665.5,92.3,668.8z"/>
			<path class="st2" d="M58.1,663c-0.6-1.3-1.7-2.2-3.8-2.2c-10.4,0-23.2,21.1-12.1,21.1c4.4,0,7.7-2.3,10.2-4.8l-1.7,4.3h4.8l0.4-1
				l7.7-18.9h-4.8L58.1,663L58.1,663z M54.9,670.7c-1.5,3.7-5.2,8.7-9.8,8.7c-5.9,0,3.1-16.8,9.1-16.8c2.1,0,2.8,2.9,1.8,5.3
				L54.9,670.7z"/>
			<path class="st2" d="M35.1,647.5l-1,2.4l0,0c4.1,0,6.8-6.5-1.4-6.5c-8.2,0-18,9.9-23.6,20.5h14.5l6.7-16.4H35.1L35.1,647.5z
				 M7.7,666.7c-5,10.9-5.1,21.5,6,21.5l-0.7,1.8l-1.4,3.4c-26.4,0-2.6-51.3,22.2-51.3c11.2,0,6.9,11.3-1.1,11.3l0,0l-3.2,8
				l-8.1,19.9h-4.8l6-14.6H7.7z"/>
			<path class="st2" d="M41.7,655.4c0.1,2.7,7.7,4.3,10.1-0.9h4.8c-3.2,6.8-13,6.3-15.8,3.1l-9.7,23.7h-4.8l10.6-25.9h3.2H41.7z"/>
			<path class="st3" d="M150.5,650.1c-2.8,2.6-9.5-3.6-15.8-4.4c-3-0.4-7.5,0.7-8.6,4.8c-3.8-0.9-9-0.5-9.8,1.5
				c-0.3,0.9,0.2,1.9,1.7,2c-0.1-1.5,1.8-3.9,7.9-2.7c0.3,3.9,4.4,6.1,8.7,6.6C140.1,658.6,147.7,656.1,150.5,650.1z"/>
		</g>
	</g>
	<g>
		<rect x="92.9" y="0" class="st4" width="142.1" height="307.1"/>
		<polygon class="st5" points="214.9,431.8 225.2,423.7 235,426.2 235,404.6 215.3,404.6 		"/>
		<polygon class="st5" points="92.9,421.3 113.2,430.9 113.2,406.5 92.9,404.3 		"/>
		<path class="st1" d="M92.9,407.5v-31H113v13.9l3.2-4.9L138,383l2.9,9l-0.3,17.3L124,406l-10.1,5.4l-1-1.6c-0.2,0.5-0.7,1-1.2,1.2
			c-0.2,1-1.1,1.7-2.2,1.7c-1.2,0-2.2-1-2.2-2.2c0-0.2,0-0.4,0.1-0.6c-0.4-0.1-0.8-0.4-1-0.7c-0.3,0.1-0.6,0.2-1,0.2h0
			c-0.2,1-1.1,1.7-2.2,1.7c-0.8,0-1.6-0.5-2-1.2c-0.4,0.4-0.9,0.6-1.5,0.6h-0.1c-0.3,0.9-1.1,1.6-2.1,1.6c-1.2,0-2.2-1-2.2-2.2v-0.1
			h-0.1C93.9,409.7,92.9,408.7,92.9,407.5 M232.8,411.2c-1.2,0-2.2-1-2.2-2.2v-0.1l-0.1,0h-0.1c-0.3,0.9-1.1,1.5-2.1,1.5
			c-0.8,0-1.6-0.5-1.9-1.1c-0.4,0.3-0.9,0.5-1.4,0.5h0c-0.2,1-1.1,1.7-2.1,1.7c-1,0-1.8-0.6-2.1-1.5c-0.1,0-0.2,0-0.3,0
			c-0.7,0-1.2-0.4-1.5-0.9c-0.4,0.4-0.9,0.7-1.6,0.7c-1.2,0-2.2-1-2.2-2.2v-6l-16.3-6l-3.4,0.4l-9.2,3.8v-9.4l8.6-5.2l14.6-4.6
			l5.6-0.4v-0.5H235V409C235,410.2,234,411.2,232.8,411.2z"/>
		<path class="st6" d="M235,307.1V391c-0.4,0.2-0.9,0.3-1.4,0.3c-1.3,0-2.5-0.7-3.3-1.7c-0.7,0.7-1.7,1.1-2.8,1.1
			c-2,0-3.6-1.5-3.9-3.4l-0.5,0c-2.2,0-4-1.8-4-3.9c0-0.2,0-0.5,0.1-0.7c-0.7-0.2-1.3-0.6-1.8-1.1c-0.7,0.6-1.6,1-2.6,1
			c-0.7,0-1.3-0.2-1.9-0.5c-0.5,0.9-1.3,1.6-2.2,1.9c-0.4,1.8-2,3.1-3.9,3.1c-0.7,0-1.4-0.2-2-0.5c-0.3,1.2-1.1,2.2-2.2,2.7
			c-0.3,1.9-1.9,3.3-3.9,3.3c-0.9,0-1.8-0.3-2.4-0.8c-0.3,1.9-1.9,3.4-3.9,3.4c-1.9,0-3.4-1.3-3.9-3h-0.2c-0.9,0-1.7-0.3-2.3-0.8
			v-15.1l-28.6-11.6l-15.4,12.7v13.9c-0.3-0.1-0.6-0.4-0.9-0.6c-0.7,0.8-1.8,1.3-2.9,1.3c-1.2,0-2.3-0.6-3.1-1.5
			c-0.2,0-0.4,0.1-0.7,0.1c-1.9,0-3.5-1.3-3.9-3.2h-0.1c-0.8,0-1.6-0.2-2.2-0.6c-0.6,0.4-1.4,0.6-2.2,0.6c-1,0-1.9-0.4-2.6-1
			c-0.4,0.1-0.8,0.2-1.2,0.2c-0.3,0-0.7,0-1-0.1c-0.1,0.7-0.4,1.3-0.8,1.8c0.2,0.4,0.3,0.9,0.3,1.4c0,1.1-0.5,2.2-1.3,2.9
			c0.5,0.6,0.7,1.4,0.7,2.3c0,2.2-1.8,4-4,4h-0.1c-0.3,1.9-2,3.3-3.9,3.3c-1.3,0-2.5-0.7-3.2-1.7c-0.6,0.4-1.4,0.6-2.2,0.6
			c-2.2,0-4-1.8-4-4c0-0.4,0-0.7,0.1-1.1c-1.1-0.7-1.9-1.9-1.9-3.4c0-1,0.4-1.9,1-2.6c-0.3-0.6-0.4-1.2-0.4-1.8c0-0.2,0-0.4,0.1-0.7
			c-1.3-0.5-2.2-1.7-2.4-3.1c-0.9-0.4-1.7-1.2-2.1-2.1c-1.1-0.2-2.1-0.9-2.6-1.8c-0.4,0.2-0.9,0.3-1.3,0.3c-0.1,0.3-0.2,0.5-0.4,0.8
			v-74.5H235z"/>
		<path class="st1" d="M117.1,371.6c-0.4,1.3-1.4,2.3-2.5,2.9c-0.7-0.3-1.4-0.4-2.2-0.4c-2.4,0-4.4,1.5-5.2,3.7
			c-0.6-0.5-1.4-0.8-2.2-0.8c-1,0-1.9,0.4-2.5,1.1c-0.7-0.8-1.5-1.4-2.5-1.8c-0.2-1.9-1.5-3.4-3.2-4c0.8-0.4,1.6-0.7,2.6-0.7
			c1.2,0,2.2,0.4,3.1,1.1c0.6,1.4,2,2.4,3.6,2.4c1.7,0,3.2-1.1,3.7-2.7c0.5,0.3,1.1,0.4,1.7,0.4c1.3,0,2.4-0.7,3.1-1.7
			c0.6,0.4,1.4,0.5,2.1,0.5C116.7,371.6,116.9,371.6,117.1,371.6"/>
		<path class="st7" d="M110.5,459.7l0.4-24.3c0-2.8-1.5-5.3-4-6.5l-14-6.7v-1.7l8,3.4l-2.2-5.3c-0.4-1-0.9-1.7-1.7-2.5l-4.1-3.9
			v-1.5l5.1,4.7c0.7,0.6,1.2,1.3,1.6,2.2l2.9,6.3c0.3,0.5,0.7,0.9,1.2,1.2l7.3,3.1l0.9-60.7h1.8l0.7,42l20.7-11.1l0.7,1.3l-9.5,5.7
			l15.2,3.7l-0.1,1l-14.7-2.8c-1.8-0.4-3.4-0.1-5,0.9l-3.8,2.2c-2.2,1.3-3.5,3.6-3.5,6.2l0.7,43.2l0.2,13.2h-5.1L110.5,459.7z"/>
		<path class="st7" d="M194.6,397.2l-9.1,3.9l-0.4-1l9.7-4.6l-7.5-2.4l-1.4-0.8l1.2-0.8l26.6,7.1l0.5-31h1.8l0.9,60.4l18.1-15.4v2.2
			l-8.2,8.4l8.2,2.5v1.2l-8-2.2c-0.8-0.2-1.7,0-2.3,0.6l-5.6,5.7c-1.4,1.4-2.1,3.1-2,5.1l0.4,23.7l0.2,13.2h-5.1l0.2-13.2l0.9-54.7
			c0-2.1-1.3-3.9-3.3-4.6l-10.8-3.5C197.8,396.4,196.2,396.5,194.6,397.2"/>
		<path class="st1" d="M235,307.1v63.1c-1.6-0.1-2.9-1.2-3.3-2.7h-0.1c-0.3,0-0.5,0-0.7-0.1c-0.7,0.8-1.6,1.3-2.7,1.3
			c-0.9,0-1.7-0.4-2.4-0.9c-0.4,0.2-0.9,0.3-1.4,0.3c-0.5,1.3-1.8,2.3-3.3,2.3c-1.3,0-2.4-0.7-3-1.7c-0.4,0.2-0.8,0.3-1.3,0.3
			c-1.5,0-2.7-0.9-3.3-2.2c-1.5-0.3-2.6-1.5-2.9-3c-1.2-0.6-2.1-1.8-2.1-3.2c0-0.2,0-0.4,0.1-0.6c-1.3-0.5-2.2-1.8-2.2-3.3
			c0-0.9,0.3-1.7,0.9-2.3c-0.2-0.5-0.4-1-0.4-1.6c0-0.3,0-0.6,0.1-0.9c-0.4-0.3-0.8-0.6-1-1c-0.6,0.4-1.2,0.6-1.9,0.6h-0.1
			c-0.1,0.8-0.5,1.4-1.1,2c0.4,0.6,0.7,1.3,0.7,2c0,0.8-0.3,1.6-0.8,2.2c0.1,0.4,0.2,0.8,0.2,1.3c0,2-1.6,3.6-3.6,3.6
			c-0.3,0-0.6-0.1-0.9-0.1c-0.3,1.6-1.8,2.9-3.5,2.9c-0.9,0-1.7-0.3-2.4-0.9c-0.3,0.1-0.7,0.1-1.1,0.1c-0.7,0-1.4-0.2-2-0.6
			c-0.6,0.4-1.2,0.6-2,0.6c-1.7,0-3.1-1.2-3.5-2.8h-0.1c-1.1,0-2.1-0.5-2.8-1.3c-0.2,0-0.4,0.1-0.6,0.1c-0.9,0-1.7-0.4-2.4-0.9
			c-0.6,0.7-1.6,1.2-2.6,1.2c-1.4,0-2.7-0.9-3.2-2.1c-1.6-0.1-2.8-1.3-3.1-2.8l-0.3,0c-1.1,0-2.1-0.5-2.8-1.3
			c-0.5,0.3-1.1,0.5-1.7,0.5c-0.2,0.7-0.7,1.3-1.2,1.7c0.3,0.5,0.5,1.1,0.5,1.7c0,2-1.6,3.6-3.6,3.6c-0.4,0-0.8-0.1-1.2-0.2
			c-0.6,1.1-1.8,1.8-3.1,1.8c-1.4,0-2.5-0.8-3.1-1.9c-0.6,0.4-1.3,0.7-2.1,0.7c-0.4,1.5-1.8,2.7-3.5,2.7c-0.8,0-1.5-0.3-2.1-0.7
			c-0.6,0.5-1.4,0.8-2.3,0.8c-1.7,0-3.2-1.3-3.5-2.9h-0.1c-1.4,0-2.6-0.8-3.2-2h-0.2c-1.7,0-3.1-1.1-3.5-2.7h-0.2
			c-0.8,0-1.6-0.3-2.2-0.7c-0.2,1.2-0.9,2.2-2,2.7c-0.3,1.7-1.7,2.9-3.5,2.9c-0.7,0-1.3-0.2-1.8-0.5c-0.3,1.2-1.2,2.2-2.3,2.6
			c-0.3,1.6-1.8,2.8-3.5,2.8c-0.6,0-1.2-0.1-1.7-0.4c-0.6,1.1-1.8,1.9-3.1,1.9c-1,0-2-0.4-2.6-1.2c-0.6,0.6-1.4,0.9-2.3,0.9
			c-2,0-3.6-1.6-3.6-3.6c0-0.2,0-0.4,0.1-0.6c-1.3-0.4-2.3-1.5-2.5-2.9l-0.5,0c-1.2,0-2.3-0.6-2.9-1.5c-0.6,0.6-1.5,1-2.5,1
			c-0.9,0-1.6-0.3-2.3-0.8v-53.1H188c0.2-1.4,1.4-2.5,2.9-2.5c1.5,0,2.7,1.1,2.9,2.5H235z"/>
		<path class="st7" d="M156.7,356.6l-2.5,4.7c-0.5,1-0.8,1.9-1,3l-0.4,2.8l9-7l0.5,0.6L147,374.7c-2.1,1.9-3.1,4.4-3.1,7.2l1.4,88.7
			l0.3,21.3h-7l0.3-21.3l1.2-74c0-2.8-1-5.3-3.1-7.2l-2-1.8c-1.5-1.3-3.1-2.1-5.1-2.4l-9.7-1.3c-1.1-0.1-2-0.4-2.9-0.9l-8.6-4.2
			l0.4-0.7l8.5,3.9c1,0.4,1.8,0.7,2.9,0.8l10.6,1.2l-1.4-1.3c-0.6-0.5-1-1-1.4-1.6l-5.1-7.4l0.8-0.6l5.2,6.9
			c0.6,0.7,1.1,1.3,1.9,1.8l9.1,6.8l0.7-44.5h2.4l0.5,29.9l4.7-3.6c1.8-1.4,2.9-3.1,3.4-5.3l0.3-1.4c0.2-1,0.5-1.8,1-2.6l2.9-4.9
			L156.7,356.6z"/>
		<path class="st7" d="M202.7,352.3l-12.8,14.6c-1.6,1.8-2.4,4-2.4,6.4l0.1,9.3l15-11.4l0.8,0.8l-6.5,5.6l4.9-0.6
			c0.8-0.1,1.4-0.3,2.2-0.6l11.3-4.4l0.3,0.9l-11.7,4.8c-0.6,0.3-1.2,0.4-1.8,0.6l-7.9,1.5l-3.3,2.9c-2.2,1.9-3.3,4.4-3.3,7.3
			l1.3,80.6l0.3,21.3h-7.1l0.3-21.3l1.4-87.7c0.1-4-2.2-7.4-5.9-8.9l-21.8-8.8l0.8-1.2l27,9.6l0-0.7l0.4-28.4l0.5-35h1.3l0.5,34.9
			l0.4,22.3l14.4-14.7L202.7,352.3z"/>
		<path class="st6" d="M169.7,334.8c-0.9-0.3-1.8-0.2-2.6,0.1c0.1,0.6,0,1.2-0.1,1.9c-0.7,2.4-3.2,3.8-5.6,3.1
			c-0.4-0.1-0.7-0.2-1-0.4c0,0.1-0.1,0.3-0.1,0.4c-0.4,1.5-1.7,2.5-3.1,2.8c0.3,1.6,1.5,2.9,3.2,3.4c0.5,0.2,1.1,0.2,1.6,0.2
			c-0.3-0.8-0.4-1.7-0.2-2.5c0.6-2,2.7-3.2,4.7-2.6c1.3,0.4,2.3,1.4,2.6,2.7c0.6-0.1,1.2-0.3,1.7-0.6c0.1,0.6,0.6,1,1.1,1.1
			c0.8,0.2,1.6-0.2,1.9-0.9c0.1,0.1,0.3,0.1,0.4,0.1c1.5,0.4,3.1-0.4,3.6-2c0.3-1.2-0.1-2.5-1.1-3.2c-0.7,1.2-2.2,1.8-3.6,1.4
			c-1.7-0.5-2.6-2.2-2.2-3.9c0-0.1,0.1-0.3,0.1-0.4C170.6,335.2,170.2,335,169.7,334.8"/>
		<path class="st5" d="M235,307.1v37c-0.5-0.1-0.9-0.3-1.3-0.5c-0.7,1.3-2,2.1-3.6,2.1c-2.1,0-3.9-1.7-4.1-3.8l-0.4,0
			c-1.2,0-2.3-0.5-3-1.3c-0.3,0.6-0.8,1-1.5,1c-0.7,0-1.4-0.5-1.6-1.1c-0.7,0.9-1.9,1.5-3.1,1.5c-1.8,0-3.4-1.2-3.9-2.9
			c-0.7,0.8-1.8,1.2-2.9,1.2c-2.2,0-4.1-1.8-4.1-4.1c0-0.2,0-0.5,0.1-0.7c-0.8-0.2-1.3-0.8-1.3-1.6c0-0.6,0.3-1.2,0.8-1.5
			c-0.5-0.5-0.8-1.2-0.9-1.9c-1.1-0.1-2.1-0.6-2.8-1.5c-0.3,0.5-0.8,0.9-1.5,0.9c-0.9,0-1.7-0.7-1.7-1.7c-1.7-0.5-2.9-2-2.9-3.9
			c0-0.4,0-0.7,0.1-1.1c-0.6-0.3-1.1-0.8-1.1-1.6c0-0.6,0.4-1.2,0.9-1.5c-0.3-0.5-0.4-1.1-0.4-1.8l0-0.2c-1.6-0.6-2.7-2.1-2.7-3.8
			c0-1.7,1-3.1,2.4-3.7c-0.9-0.8-1.4-1.9-1.4-3.1c0-0.2,0-0.4,0-0.6H235z M152.8,328.5c-0.2,0.1-0.4,0.1-0.6,0.1
			c-0.9,0-1.7-0.8-1.7-1.7c0,0,0-0.1,0-0.1c-1.3-0.3-2.3-1.2-2.8-2.4c-0.7,0.6-1.6,0.9-2.6,0.9c-0.7,0-1.4-0.2-2-0.5
			c0.1,0.3,0.1,0.5,0.1,0.8c0,0.6-0.1,1.1-0.3,1.6c0.7,0.2,1.2,0.8,1.2,1.6c0,0.6-0.3,1.1-0.8,1.4c0.3,0.5,0.4,1.1,0.4,1.6
			c0.7-0.5,1.5-0.8,2.4-0.8c2.2,0,4.1,1.8,4.1,4.1c0,0.3,0,0.6-0.1,0.8c0.6,0.3,1,0.8,1,1.5c0,0.5-0.2,0.9-0.5,1.2
			c0.4,0.6,0.6,1.4,0.6,2.2c0,1.6-0.9,3-2.3,3.7c0.2,0.2,0.2,0.5,0.2,0.8c0,0.9-0.7,1.7-1.7,1.7c-0.5,0-0.9-0.2-1.2-0.5
			c-0.6,1.2-1.7,2-3,2.2c-0.7,1.3-2,2.2-3.6,2.2c-0.6,0-1.1-0.1-1.6-0.4c-0.2,0.7-0.8,1.3-1.6,1.3c-0.8,0-1.4-0.6-1.6-1.3
			c-0.4,0.1-0.8,0.2-1.2,0.2c-0.2,0-0.4,0-0.6-0.1c-0.4,1.8-2,3.1-3.9,3.1c-1.5,0-2.8-0.8-3.5-2c-0.7,0.6-1.6,0.9-2.6,0.9
			c-0.7,0-1.4-0.2-2-0.5c-0.2,0.7-0.8,1.3-1.6,1.3c-0.9,0-1.7-0.8-1.7-1.7c0-0.2,0-0.3,0.1-0.5h-0.1c-2.2,0-4.1-1.8-4.1-4.1l0-0.5
			c-0.4,0.1-0.7,0.1-1.1,0.1c-0.9,0-1.8-0.3-2.5-0.8c-0.1,0.5-0.4,0.9-0.7,1.3c0.6,0.3,0.9,0.8,0.9,1.5c0,0.9-0.7,1.7-1.7,1.7
			c-0.1,0-0.1,0-0.2,0c0,1.9-1.3,3.5-3.1,3.9c0,0.1,0,0.2,0,0.3c0,0.9-0.7,1.7-1.7,1.7c-0.5,0-0.9-0.2-1.2-0.5
			c-0.7,0.6-1.6,0.9-2.6,0.9c-1.5,0-2.8-0.8-3.5-2c-0.4,0.1-0.8,0.2-1.3,0.2c-0.8,0-1.6-0.2-2.2-0.7v-47.4h95.5
			c0.2,0.5,0.4,1.1,0.4,1.7c0,1.5-0.8,2.8-2,3.5c0.6,0.7,0.9,1.6,0.9,2.6c0,2.2-1.8,4.1-4.1,4.1h-0.2c-0.3,1.8-1.8,3.2-3.7,3.3
			c-0.1,2.2-1.9,3.9-4.1,3.9c-0.3,0-0.6,0-0.8-0.1c-0.1,0.8-0.8,1.5-1.7,1.5c-0.6,0-1-0.3-1.3-0.7c-0.7,0.8-1.8,1.4-3,1.4
			c-0.7,0-1.3-0.1-1.9-0.4c-0.1,2.2-1.9,3.9-4.1,3.9c-0.9,0-1.8-0.3-2.4-0.8c-0.3,0.4-0.8,0.7-1.4,0.7c-0.7,0-1.2-0.4-1.5-0.9
			c-0.4,0.1-0.8,0.2-1.2,0.2C154.8,330.9,153.4,329.9,152.8,328.5z"/>
		<path class="st1" d="M221.8,327.2c-1.1,0-2-0.9-2-2c0-0.7,0.4-1.3,0.9-1.7c0-0.2,0.1-0.4,0.1-0.6c-0.5-0.6-0.9-1.4-0.9-2.3
			c0-0.8,0.3-1.6,0.8-2.2c-0.1-0.4-0.2-0.8-0.2-1.3c0-0.1,0-0.3,0-0.4c-0.7,0-1.3-0.2-1.9-0.5c-0.3,0.9-1,1.7-1.8,2.2
			c0,0.2,0,0.4,0,0.6c0,2.4-1.9,4.3-4.3,4.3c-1.2,0-2.3-0.5-3-1.3c0,0.2,0,0.4,0,0.6c0,0.5-0.1,0.9-0.2,1.3c0.8,0.1,1.6,0.4,2.2,0.8
			c0.3-0.1,0.6-0.1,0.9-0.1c2.4,0,4.3,1.9,4.3,4.2c0.8-0.8,1.8-1.2,3-1.2c1,0,2,0.4,2.7,1c-0.1-0.3-0.2-0.6-0.2-0.9
			c0-0.3,0.1-0.6,0.2-0.9C222.3,327.2,222.1,327.2,221.8,327.2"/>
		<path class="st1" d="M116.3,331c-0.7,0-1.4-0.2-2-0.5c-0.7,0.9-1.8,1.5-3.1,1.5c-0.9,0-1.7-0.3-2.4-0.8c-0.1,2.5-2.2,4.5-4.8,4.5
			c-0.3,0-0.5,0-0.8-0.1c-0.2,0.4-0.5,0.8-0.8,1.1c0.3-0.1,0.7-0.1,1-0.1c0.6,0,1.2,0.1,1.7,0.3c0.9-1.1,2.2-1.7,3.6-1.7
			c1.3,0,2.5,0.5,3.4,1.4c0.3-0.1,0.5-0.1,0.8-0.1c0.6,0,1.2,0.2,1.7,0.5c0.3-1.1,1.2-2,2.3-2.2c0.6-1.7,2.1-3,3.9-3.2
			c0.3-1.3,1-2.4,2.1-3.1c-0.4,0.1-0.9,0.2-1.3,0.2c-0.4,0-0.8-0.1-1.2-0.2C119.6,330.1,118.1,331,116.3,331"/>
		<path class="st1" d="M156.5,224.4c0.3,0,0.6,0.1,0.8,0.2c0.2-1.1,1.2-2,2.3-2c0.3,0,0.7,0.1,1,0.2c0.4-0.7,1.2-1.2,2-1.2
			c0.6,0,1.1,0.2,1.5,0.5c0.2-0.1,0.4-0.2,0.6-0.3c0.1-0.6,0.4-1.1,0.8-1.4c0-0.1,0-0.2,0-0.4c0-1.3,1.1-2.3,2.4-2.3
			c0.3,0,0.5,0,0.8,0.1c0.1-0.3,0.4-0.6,0.6-0.8c-0.2-0.4-0.3-0.7-0.3-1.2c0-1.2,0.9-2.2,2.1-2.3c0.4-0.8,1.2-1.4,2.1-1.4
			c0-1.3,1.1-2.3,2.4-2.3c0.8,0,1.5,0.4,1.9,1c0.4-0.3,0.9-0.5,1.4-0.5c0.7,0,1.3,0.3,1.8,0.8c0.2,0,0.3-0.1,0.5-0.1
			c1.2,0,2.2,0.9,2.3,2h0.1c1.3,0,2.4,1.1,2.4,2.4c0,0.3,0,0.5-0.1,0.8c0.4,0.3,0.7,0.6,0.8,1c1.2,0.1,2,1.1,2,2.3
			c0,0.8-0.4,1.5-1,1.9c0.3,0.4,0.4,0.8,0.4,1.3c0,0.4-0.1,0.8-0.3,1.2c0.1,0.1,0.2,0.2,0.2,0.4c0.2-0.1,0.5-0.1,0.8-0.1
			c0.4,0,0.8,0.1,1.1,0.3c0.3-0.9,1.2-1.5,2.2-1.5c0.1,0,0.3,0,0.4,0c0.4-0.8,1.2-1.4,2.1-1.4c0.5,0,1,0.2,1.4,0.5
			c0.4-0.2,0.8-0.4,1.3-0.4c1.3,0,2.4,1.1,2.4,2.4l0,0.1c0.6,0.4,1,1.1,1,2c0,0.2,0,0.4-0.1,0.5c0.9,0.3,1.6,1.2,1.6,2.2
			c0,0.7-0.3,1.4-0.9,1.8l2.5,5.2v44.7h-49.7v-54C154.2,225.4,155.2,224.4,156.5,224.4"/>
		<path class="st5" d="M94.5,204.4c2.1,0,3.8,1.7,3.8,3.8c0,0.2,0,0.3,0,0.5h0.2c0.7,0,1.4,0.3,1.9,0.8c0.4-2,2.1-3.5,4.2-3.5
			c2.2,0,4.1,1.8,4.2,3.9c0.2-0.1,0.5-0.1,0.7-0.1c1.2,0,2.2,0.8,2.4,2c0.7-0.6,1.6-1,2.7-1c1.6,0,2.9,0.9,3.6,2.2
			c0.3-0.2,0.7-0.3,1.1-0.3c1.3,0,2.3,1,2.3,2.3c0,0.2,0,0.4-0.1,0.6c1,0.2,1.7,1.1,1.7,2.1c0.2-0.1,0.4-0.1,0.7-0.1
			c0.9,0,1.7,0.5,2.1,1.3c0.4-0.1,0.8-0.2,1.2-0.2c1.4,0,2.6,0.8,3.3,1.9c0.6-0.4,1.3-0.6,2-0.6c1.4,0,2.6,0.7,3.3,1.8
			c0.6-1.2,1.9-2,3.4-2c0.2,0,0.4,0,0.7,0.1c0.7-1.2,1.9-2,3.4-2c1.9,0,3.5,1.4,3.8,3.2c0.1,0,0.3,0,0.4,0c1.4,0,2.6,0.7,3.3,1.8
			c0.7-0.6,1.6-1,2.5-1c2.1,0,3.8,1.7,3.8,3.8c0.4-0.1,0.8-0.2,1.2-0.2c1.6,0,3,1,3.6,2.4c0.7-1,1.9-1.7,3.2-1.7
			c2.1,0,3.8,1.7,3.8,3.9c0,0.2,0,0.5-0.1,0.7c1.3,0.6,2.2,2,2.2,3.5c0,0.3,0,0.6-0.1,0.8c0.4,0.4,0.6,0.8,0.6,1.4
			c0,0.4-0.1,0.8-0.3,1.1c0.6,0.7,1,1.6,1,2.5c0,1.4-0.8,2.6-1.9,3.3c0.6,0.7,1,1.6,1,2.6c0,2.1-1.7,3.9-3.8,3.9c-0.4,0-0.7,0-1-0.1
			c-0.1,0.4-0.2,0.8-0.4,1.2c1.3,0.4,2.4,1.4,2.7,2.7c0.5-0.2,1-0.4,1.6-0.4c1.6,0,3,1,3.6,2.5c0.4-0.1,0.9-0.2,1.3-0.2
			c1.7,0,3.1,1,3.6,2.5c0.3-0.1,0.6-0.1,0.9-0.1c2.1,0,3.8,1.7,3.8,3.9c0,0.7-0.2,1.4-0.5,2c0.9,0.7,1.5,1.8,1.5,3.1
			c0,0.1,0,0.2,0,0.3c0.4,0,0.8,0.1,1.2,0.2c-0.2-0.4-0.3-0.9-0.3-1.4c0-2.1,1.7-3.8,3.8-3.9c-0.2-0.4-0.2-0.8-0.2-1.3
			c0-1.6,1-3,2.5-3.6l0-0.2c0-0.4,0.1-0.8,0.2-1.1c-1.8-0.3-3.1-1.9-3.1-3.8c0-0.6,0.1-1.2,0.4-1.7c-1.3-0.6-2.1-2-2.1-3.4
			c0-1.2,0.5-2.2,1.3-2.9c-0.4-0.6-0.6-1.3-0.6-2c-2.1,0-3.8-1.7-3.8-3.9c0-2.1,1.7-3.8,3.7-3.8c-0.2-0.5-0.4-1.1-0.4-1.7
			c0-2.1,1.7-3.9,3.8-3.9c0.2,0,0.4,0,0.6,0.1c0.6-1.4,2-2.4,3.6-2.4c1,0,1.8,0.4,2.5,0.9c0.6-1.1,1.8-1.8,3.1-1.8
			c0-0.1,0-0.2,0-0.3c0-2.1,1.7-3.9,3.8-3.9c1.4,0,2.6,0.8,3.3,1.9c0.6-0.4,1.3-0.7,2.1-0.7c0.5-1.4,1.7-2.4,3.2-2.6
			c0.4-1.7,1.9-3,3.8-3c1.1,0,2.2,0.5,2.9,1.3c0.5-1.1,1.5-1.8,2.7-2.1c0-0.2-0.1-0.5-0.1-0.7c0-2.1,1.7-3.9,3.9-3.9
			c0.4,0,0.8,0.1,1.2,0.2c0.6-1.4,2-2.4,3.6-2.4c1.1,0,2,0.4,2.7,1.1c0.4-0.6,1-1.1,1.7-1.4v103.2l-14-2.1l-24.6-3
			c-0.2,1-1.1,1.8-2.2,1.8c-1.1,0-2-0.8-2.2-1.8h-1.8c-0.4,0.5-1.1,0.9-1.8,0.9c-0.7,0-1.4-0.4-1.8-0.9l-53,6.2l-40.7-3.4V204.8
			C93.4,204.6,93.9,204.4,94.5,204.4"/>
		<path class="st1" d="M114.6,266.2c1.6,0,2.9,1,3.4,2.3c0.6-1.1,1.8-1.8,3.1-1.8c1.9,0,3.5,1.5,3.6,3.4c0.5-0.2,1-0.4,1.6-0.4
			c0.4,0,0.9,0.1,1.3,0.2c0.2-0.7,0.6-1.3,1.1-1.7c-0.5-0.6-0.8-1.4-0.8-2.3c0-2,1.6-3.6,3.6-3.6c0.1,0,0.2,0,0.3,0
			c0.1-1.9,1.7-3.4,3.6-3.4c2,0,3.6,1.6,3.6,3.6c0,0.1,0,0.1,0,0.1c0.3-0.1,0.6-0.1,0.9-0.1c2,0,3.6,1.6,3.6,3.6
			c0,0.3,0,0.6-0.1,0.9c0.2,0,0.4-0.1,0.6-0.1c1,0,1.9,0.4,2.5,1c0.6-1.2,1.8-2,3.2-2c0.2,0,0.4,0,0.6,0c0-0.2-0.1-0.4-0.1-0.6
			c0-1,0.4-1.8,1-2.5c-0.3-0.2-0.6-0.4-0.8-0.7c-0.5,0.6-1.3,1-2.2,1c-1,0-1.8-0.5-2.3-1.2c-0.5,0.4-1.1,0.6-1.7,0.6
			c-1.6,0-2.9-1.3-2.9-2.9c0-1.1,0.5-2,1.4-2.5c-1.5-0.1-2.7-1.3-2.7-2.9c-0.4,0.2-0.9,0.4-1.3,0.4c-0.5,0-0.9-0.1-1.3-0.3
			c-0.1,1.5-1.3,2.7-2.9,2.7c0,0,0,0,0,0c-0.4,1.2-1.5,2-2.8,2c-1.4,0-2.5-1-2.8-2.2c-0.5,0.4-1.1,0.6-1.8,0.6
			c-0.7,0-1.3-0.2-1.8-0.6c-0.5,1.4-1.9,2.5-3.5,2.5c-0.3,0-0.5,0-0.8-0.1c-0.4,1.6-1.8,2.9-3.6,2.9c-0.8,0-1.5-0.2-2.1-0.6
			c-0.4,0.8-1.2,1.4-2.1,1.7c0.5,0.6,0.9,1.5,0.9,2.4c0,0.2,0,0.4,0,0.6C114.3,266.2,114.5,266.2,114.6,266.2"/>
		<path class="st8" d="M98.4,51.5c6.7,0,12.2,5.4,12.2,12.2c0,0.1,0,0.2,0,0.4c0.9-0.5,2-0.8,3.1-0.8c3.4,0,6.1,2.7,6.1,6.1
			c0,0.3,0,0.5,0,0.7c1.6-1.1,3.5-1.7,5.5-1.7c5.5,0,9.9,4.4,9.9,9.9c0,5.5-4.4,9.9-9.9,9.9H92.9V52.8
			C94.6,51.9,96.4,51.5,98.4,51.5"/>
		<path class="st8" d="M227.9,101.2c-8.6,0-15.6,7-15.6,15.6c0,0.1,0,0.3,0,0.4c-1.2-0.7-2.5-1.1-4-1.1c-4.4,0-7.9,3.5-7.9,7.9
			c0,0.3,0,0.6,0,0.9c-2-1.3-4.4-2.1-7.1-2.1c-7,0-12.7,5.7-12.7,12.7c0,1.2,0.2,2.3,0.5,3.4c-3.4,0.1-6.1,2.9-6.1,6.4
			c0,1.1,0.3,2,0.7,2.9H235v-45.4C232.9,101.8,230.5,101.2,227.9,101.2"/>
	</g>
</g>
</svg>
